<svg xmlns="http://www.w3.org/2000/svg" viewBox="0 0 675.05878 659.64661">
  <style>
    .fg { fill: #1a1a1a; }
    .fg-soft { fill: #1a1a1a; opacity: 0.55; }
    @media (prefers-color-scheme: dark) {
      .fg { fill: #4ecdc4; }
      .fg-soft { fill: #4ecdc4; opacity: 0.6; }
    }
  </style>

  <g transform="translate(-186.27454,-90.945991)">
    <path class="fg" d="M 642.52095,335.31154 C 631.96776,327.59955 611.03333,312.42124 596,301.58195 c -47.16075,-34.00368 -49.13343,-35.51077 -50.58318,-38.64468 -1.5197,-3.28513 -2.04958,-107.77342 -0.57446,-113.27817 0.84375,-3.14865 2.3553,-4.31634 48.23212,-37.25984 19.86798,-14.266917 29.48768,-20.397307 32,-20.392767 4.20066,0.008 22.43526,6.65388 39.83568,14.519617 50.12907,22.66049 95.29952,59.10372 129.58026,104.54451 4.32858,5.73774 6.83796,10.39193 6.82943,12.66666 -0.0159,4.25588 -25.84603,84.83226 -28.48592,88.86124 -1.37838,2.10367 -14.48195,6.87679 -54.32523,19.78857 -28.87979,9.3589 -53.47427,17.00045 -54.65442,16.98122 -1.18014,-0.0192 -10.78014,-6.34478 -21.33333,-14.05677 z m -3.20985,-2.31153 C 627.0496,324.01667 613.93853,314.53837 610.1754,311.9371 591.64524,299.12812 548.38932,267.33161 546.33333,265.00815 544.18938,262.58527 544,257.78999 544,205.92664 v -56.4446 l 3,-3.24056 c 2.96966,-3.20778 67.10164,-49.751439 72.62504,-52.707472 4.40819,-2.359191 8.61838,-1.869675 19.95067,2.31965 54.18084,20.029592 103.22103,53.677402 138.90354,95.305482 16.16221,18.85524 22.85408,28.55709 22.85408,33.13379 0,5.54118 -26.4093,86.51422 -29.12738,89.3069 -2.29466,2.35762 -103.03609,35.73351 -107.85768,35.73351 -1.50894,0 -12.77567,-7.35 -25.03717,-16.33333 z M 640,333.94094 C 628.63333,325.52404 615.73333,316.13086 611.33333,313.06721 588.18707,296.9508 549.6185,268.58951 547,265.75987 l -3,-3.2419 v -56.51796 -56.51797 l 3,-3.35326 c 3.67633,-4.10923 70.85643,-52.553395 75.13379,-54.179646 6.78356,-2.579105 48.67631,15.036136 78.06877,32.826686 30.1316,18.23793 66.63587,50.47479 88.93856,78.5415 14.52585,18.27997 14.47431,18.09743 9.50945,33.68274 -18.26306,57.33006 -24.34114,74.90994 -26.60896,76.96229 -3.04698,2.75748 -102.60354,35.39039 -107.77423,35.32651 C 661.80649,349.25846 654.12453,344.4 640,333.94094 Z m -1.33333,-0.8199 c -12.1,-8.90944 -25,-18.31128 -28.66667,-20.89297 C 580.75857,291.63928 546.41523,266.02156 545.32555,263.98546 544.50685,262.45572 544,239.90274 544,205.00378 v -56.50487 l 3.66667,-3.38238 c 5.22795,-4.82262 70.06855,-51.415967 74.12214,-53.262909 2.89972,-1.321199 5.60631,-0.722532 19.12776,4.230842 33.47099,12.261587 68.73182,32.389827 97.17039,55.468637 23.14905,18.78619 61.70129,61.15991 64.00877,70.35361 0.93342,3.71905 -26.21916,87.87972 -29.53429,91.54291 -2.71657,3.00177 -101.72102,35.88783 -108.00897,35.87707 -2.866,-0.005 -9.65956,-4.25797 -25.8858,-16.20565 z" />
    <path class="fg" d="m 256.2976,617.02341 c -4.86799,-2.34567 -23.70357,-31.88206 -35.08885,-55.0234 -21.01359,-42.71153 -31.66,-85.02226 -34.06367,-135.37508 l -0.87054,-18.2362 4.5294,-4.71414 c 6.98966,-7.27475 66.40898,-49.44148 73.4425,-52.11822 l 6.24644,-2.37721 49.75356,16.20437 c 27.36446,8.91241 51.05578,17.02963 52.64739,18.03827 2.25496,1.42902 6.02618,11.4828 17.08205,45.53938 7.80353,24.03803 17.88638,54.94615 22.40633,68.68472 6.97661,21.20565 8.00751,25.53628 6.82405,28.66667 -1.87732,4.96572 -58.27016,82.54992 -63.97878,88.02078 l -4.52165,4.33333 -45.68625,-0.0902 c -30.23882,-0.0597 -46.71269,-0.58484 -48.72198,-1.55303 z m 0.21529,0.33481 c -4.95338,-2.00111 -21.95018,-28.03596 -33.89065,-51.91199 -21.92338,-43.83774 -33.30683,-87.43358 -35.51709,-136.02177 -0.59636,-13.10961 -0.37703,-19.66502 0.74694,-22.32516 1.10284,-2.61015 12.03841,-11.33637 35.63133,-28.43262 18.72208,-13.56667 35.34734,-25.18858 36.94503,-25.82648 1.59768,-0.63789 4.26109,-1.7926 5.91868,-2.56602 2.4583,-1.14703 7.78615,0.13058 28.90559,6.93151 58.23083,18.75162 77.08986,25.23213 79.00674,27.14902 2.40948,2.40948 45.74876,134.73485 45.72185,139.59993 -0.0217,3.92575 -62.37436,90.35845 -67.08895,92.99813 -3.41675,1.91302 -91.72817,2.28453 -96.37947,0.40545 z m -1.72842,-0.89243 c -5.18295,-3.63028 -23.69694,-33.11518 -34.19983,-54.46578 -21.2603,-43.21855 -33.91797,-95.53065 -33.91797,-140.17745 0,-12.23749 0.41185,-15.33604 2.33333,-17.55486 1.28333,-1.48192 17.03333,-13.32629 35,-26.32082 29.90371,-21.62809 41.13958,-28.61354 46.02395,-28.61354 0.99158,0 24.19184,7.25916 51.55613,16.13145 33.37914,10.82249 50.70373,17.07551 52.6413,19 C 377.53202,387.75309 420,516.86457 420,523.64132 c 0,3.13979 -6.89588,13.50918 -31.38327,47.19134 -17.2608,23.74204 -32.62727,44.21735 -34.14772,45.50069 -2.5183,2.12558 -6.93925,2.33333 -49.65338,2.33333 -41.42331,0 -47.25522,-0.25655 -50.03116,-2.20089 z m -0.45123,-0.44186 c -4.80215,-3.77738 -20.2766,-27.4725 -29.34715,-44.93759 -24.19571,-46.58818 -36.24562,-91.44042 -37.90397,-141.08633 -0.69768,-20.88621 -0.56045,-22.89509 1.74703,-25.5747 1.3773,-1.59941 17.08337,-13.48324 34.90237,-26.40851 29.91393,-21.6985 41.24719,-28.68346 46.5396,-28.68346 1.12752,0 25.01229,7.50608 53.07728,16.68018 50.05689,16.36298 51.06559,16.76233 53.04372,21 1.88698,4.04242 32.76178,97.83864 40.92223,124.31983 2.77754,9.01332 3.38791,12.81591 2.45234,15.27821 -1.85559,4.8837 -63.65283,89.23369 -66.48606,90.74999 -1.45713,0.77983 -21.18429,1.30513 -49.01316,1.30513 -44.41512,0 -46.73028,-0.12253 -49.93423,-2.64275 z" />
    <path class="fg" d="M 694.33641,616.33335 C 692.41369,614.31668 677.60144,594.44251 661.42028,572.16851 639.10146,541.44578 632,530.73387 632,527.79068 c 0,-4.39456 41.92686,-134.85729 44.8028,-139.41173 2.76446,-4.3779 103.59857,-37.32043 108.51046,-35.4504 5.35233,2.03771 71.8387,50.88848 74.23295,54.54255 1.86124,2.84062 2.03606,5.87385 1.232,21.3761 -3.33206,64.24178 -23.08728,123.84289 -58.42852,176.27776 -11.1081,16.48079 -4.83628,14.87506 -58.10024,14.87506 h -46.41721 z m 1.39319,2 C 694.56722,617.41668 684.43325,604.06668 673.20967,588.66668 633.12842,533.67077 632,532.00102 632,527.68816 c 0,-4.51601 41.80741,-134.67012 44.7206,-139.22339 2.23498,-3.49324 2.26846,-3.50566 59.02652,-21.89313 28.86939,-9.35259 46.86266,-14.54035 48.7708,-14.06144 3.30504,0.82951 72.44609,50.38 75.14875,53.85595 1.03917,1.3365 1.66666,6.47837 1.66666,13.65713 0,47.64547 -15.92625,109.39292 -39.53811,153.29266 -8.40747,15.63137 -26.98415,43.8463 -29.8935,45.40334 -3.80961,2.03884 -93.55406,1.6787 -96.17212,-0.38593 z m 3.6153,1.86462 c -3.36251,-0.74763 -8.9492,-7.68137 -35.59918,-44.18275 -17.38591,-23.81277 -31.94447,-44.62558 -32.35235,-46.2507 -1.09549,-4.36478 42.68097,-138.9181 46.40212,-142.62366 3.07277,-3.0599 99.14863,-35.14085 105.23963,-35.14085 4.99551,0 76.70465,52.49892 77.8292,56.97947 0.47217,1.88129 0.49654,12.18053 0.0542,22.8872 -2.10432,50.92892 -17.62361,104.37626 -43.40004,149.46667 -8.78079,15.36012 -21.63934,34.66656 -24.88389,37.36185 -1.9753,1.64091 -9.66122,2.00653 -45.83723,2.18052 -23.90519,0.11498 -45.25878,-0.19001 -47.45242,-0.67775 z m -1.913,-0.52356 c -3.5347,-1.82965 -65.08287,-85.26983 -66.23735,-89.79726 -0.66184,-2.59549 14.33926,-50.68384 36.56365,-117.21047 l 8.90847,-26.66667 50.66666,-16.88302 c 27.86667,-9.28566 52.54697,-16.93566 54.84511,-17 3.33599,-0.0934 9.11574,3.45379 28.66667,17.59348 46.47455,33.6115 49.12022,35.68714 50.01084,39.23567 1.31992,5.259 -0.46721,40.85976 -2.79713,55.72054 -7.84931,50.06476 -25.70905,96.07079 -53.63807,138.16971 -13.07485,19.70843 -6.81001,17.7754 -58.89232,18.17135 -33.95456,0.25814 -45.64823,-0.066 -48.09653,-1.33333 z" />
    <path class="fg" d="m 331.48188,331.97112 c -28.5183,-9.40642 -52.72361,-17.97475 -53.78959,-19.04073 -1.06598,-1.06597 -8.50908,-22.16387 -16.54023,-46.88421 l -14.6021,-44.94608 3.31181,-5.65116 c 13.81389,-23.57163 57.01864,-64.5843 91.47156,-86.83058 27.63611,-17.84465 79.08034,-39.890007 86.52683,-37.079277 4.0002,1.50991 69.53705,48.341297 75.17531,53.718857 l 3.70213,3.53095 0.0431,57.8233 c 0.0403,54.05595 -0.11405,57.97802 -2.3688,60.19807 -1.32654,1.30612 -27.28824,20.40814 -57.69266,42.44892 -44.94035,32.57819 -56.03881,40.04988 -59.33333,39.94434 -2.22891,-0.0714 -27.38572,-7.82598 -55.90402,-17.2324 z m 0.18102,0.0592 c -28.41874,-9.37387 -52.5695,-17.78955 -53.66836,-18.70152 -2.31191,-1.91872 -30.37786,-86.93731 -30.41451,-92.13293 -0.0369,-5.23788 13.08325,-21.89706 34.37331,-43.64504 18.33785,-18.73228 39.21636,-35.94059 59.37999,-48.94169 27.71579,-17.87058 79.08591,-39.878703 86.52683,-37.070066 4.01108,1.514011 69.54664,48.349916 75.19717,53.740716 l 3.72399,3.55281 0.0283,57.79437 c 0.0265,54.07891 -0.12722,57.9475 -2.39067,60.17621 -1.33042,1.31001 -27.2953,20.41521 -57.69972,42.45599 -44.94035,32.57819 -56.03881,40.04988 -59.33333,39.94434 -2.22891,-0.0714 -27.30426,-7.79933 -55.723,-17.17319 z m -0.32948,-0.0596 c -37.63949,-12.42795 -52.63613,-17.95521 -54.30366,-20.01453 -1.26706,-1.56475 -3.43458,-6.54502 -4.8167,-11.06727 -1.38213,-4.52225 -7.72268,-24.33321 -14.09011,-44.02436 l -11.57716,-35.8021 2.39377,-4.48568 c 4.24307,-7.95106 19.19398,-25.77713 34.31953,-40.9194 27.92156,-27.95242 55.29499,-47.55077 90.74091,-64.9671 27.36652,-13.446523 48.81806,-21.054397 53.92777,-19.125697 1.99371,0.75254 20.20709,13.308367 40.47418,27.901827 27.9229,20.10609 37.18219,27.46998 38.22365,30.3992 2.12554,5.97829 1.81005,109.85963 -0.34663,114.13438 -0.9593,1.90143 -25.96453,20.94566 -58.21004,44.33333 -46.00021,33.36395 -57.29262,40.98202 -60.63197,40.90347 -2.25699,-0.0531 -27.50359,-7.82282 -56.10354,-17.26607 z m 1.33325,0.57301 C 304.8,323.40807 280.52549,314.85268 278.72332,313.53178 c -2.67903,-1.96359 -5.90135,-10.52227 -17.66667,-46.92382 -7.91449,-24.48721 -14.38998,-45.24868 -14.38998,-46.13661 0,-3.45378 20.31072,-28.65045 35.43725,-43.96203 27.31974,-27.65396 55.72158,-48.10831 91.22941,-65.70134 11.36667,-5.63182 27.67235,-12.599814 36.23484,-15.484418 15.13449,-5.098633 15.69162,-5.184656 20,-3.088035 2.43751,1.186185 20.33183,13.660433 39.76516,27.720543 25.69407,18.58979 35.79954,26.65531 37.04223,29.56468 1.31905,3.08812 1.62322,16.59608 1.33334,59.2109 L 507.33333,263.94172 504,267.2116 c -1.83333,1.79843 -27.85138,21.01155 -57.81789,42.69581 -44.68807,32.33704 -55.2365,39.40982 -58.66666,39.3363 -2.30017,-0.0493 -26.98212,-7.56428 -54.84878,-16.69996 z" />
    <path class="fg" d="m 497.84849,749.34471 c -28.83361,-2.4277 -77.76293,-13.10733 -83.39214,-18.2017 C 412.11063,729.02017 384,645.20643 384,640.33537 c 0,-2.52464 59.61227,-86.08838 63.7296,-89.33536 3.0738,-2.42404 150.80778,-2.42404 153.85775,0 2.24198,1.78187 4.31581,4.57383 40.34837,54.32017 15.37724,21.22972 23.39761,33.43931 23.39761,35.61868 0,4.38795 -26.02525,84.21872 -28.70126,88.03926 -3.39197,4.84272 -37.5568,14.11902 -67.40966,18.3028 -17.85722,2.50263 -53.81359,3.54232 -71.37392,2.06379 z m -2.07255,-0.0186 C 465.29942,746.5716 420.68942,736.50098 414.31154,730.93568 411.90959,728.83975 384,645.42122 384,640.33799 c 0,-2.70384 59.46216,-86.17648 63.64036,-89.33798 1.70146,-1.28743 19.25244,-1.66666 77.13343,-1.66666 69.45221,0 75.12685,0.1706 77.61236,2.33333 1.47487,1.28333 16.24134,21.03677 32.81438,43.89653 24.97666,34.45116 30.1328,42.32518 30.1328,46.01624 0,2.44918 -6.18944,23.01043 -13.75431,45.69169 -11.02833,33.06549 -14.39759,41.70696 -17,43.60162 -5.9185,4.30889 -39.95544,13.01234 -64.57902,16.51325 -16.90018,2.40281 -57.39367,3.46125 -74.22406,1.9401 z m -3.15286,0.0341 c -17.15249,-1.8221 -36.08788,-5.24198 -53.28975,-9.62455 -22.68596,-5.77977 -25.2686,-6.97076 -27.78567,-12.81347 C 407.14138,716.69428 384,644.28445 384,640.72509 c 0,-2.74472 8.22109,-15.02246 31.33773,-46.80117 17.23575,-23.69418 32.38575,-43.3858 33.66666,-43.75916 1.28092,-0.37335 35.02894,-1.04645 74.99561,-1.49577 59.19427,-0.66549 73.28467,-0.48743 76,0.96041 3.54878,1.89223 61.44787,80.03064 64.76654,87.40646 1.90903,4.24286 1.55774,5.62174 -12.15044,47.69246 -9.01965,27.68155 -15.07472,44.21619 -16.77087,45.79639 -4.23115,3.94191 -37.38262,12.75625 -63.17856,16.79797 -15.65046,2.45212 -64.44788,3.6943 -80.04359,2.03757 z M 492,749.21909 c -16.34389,-1.56357 -34.40141,-4.76362 -52.27448,-9.26377 -18.66411,-4.69932 -25.28513,-7.20976 -27.23046,-10.32474 -3.15803,-5.05681 -28.6302,-86.01485 -28.2382,-89.74927 0.38562,-3.67348 17.31809,-28.08147 51.09965,-73.65961 l 12.02318,-16.22169 8.64349,-0.75371 c 4.75392,-0.41455 38.34349,-0.87608 74.64349,-1.02562 51.70614,-0.21302 66.72191,0.10056 69.33333,1.4479 3.65906,1.88786 64.99065,85.16852 66.16361,89.84193 0.68444,2.72706 -24.12062,80.45219 -28.30926,88.7053 -1.89093,3.7258 -7.32518,5.94279 -28.52102,11.63557 C 574.39214,749.2359 529.57641,752.81391 492,749.21909 Z" />
  </g>

  <rect class="fg-soft" x="326.441" y="279.187" width="23.431" height="68.469" />
  <rect class="fg-soft" x="326.456" y="191.850" width="23.400" height="155.803" />
  <circle class="fg-soft" cx="338.156" cy="338.424" r="19.592" />
</svg>
